<mxfile host="Electron" modified="2023-08-03T08:21:18.487Z" agent="Mozilla/5.0 (Windows NT 10.0; Win64; x64) AppleWebKit/537.36 (KHTML, like Gecko) draw.io/21.6.5 Chrome/114.0.5735.243 Electron/25.3.1 Safari/537.36" etag="XTA2Yz1Qa3-awbISUK0B" version="21.6.5" type="device">
  <diagram name="第 1 页" id="MOr2GwjqLLhc_CbryLyI">
    <mxGraphModel dx="718" dy="539" grid="1" gridSize="10" guides="1" tooltips="1" connect="1" arrows="1" fold="1" page="1" pageScale="1" pageWidth="1920" pageHeight="1200" math="0" shadow="0">
      <root>
        <mxCell id="0" />
        <mxCell id="1" parent="0" />
        <mxCell id="35yHNwrbFxf3cl5usEXa-1" value="stand_walk" style="rounded=1;whiteSpace=wrap;html=1;" parent="1" vertex="1">
          <mxGeometry x="460" y="80" width="80" height="40" as="geometry" />
        </mxCell>
        <mxCell id="35yHNwrbFxf3cl5usEXa-2" value="stand_run" style="rounded=1;whiteSpace=wrap;html=1;" parent="1" vertex="1">
          <mxGeometry x="460" y="120" width="80" height="40" as="geometry" />
        </mxCell>
        <mxCell id="35yHNwrbFxf3cl5usEXa-3" value="crouch_walk" style="rounded=1;whiteSpace=wrap;html=1;" parent="1" vertex="1">
          <mxGeometry x="460" y="280" width="80" height="40" as="geometry" />
        </mxCell>
        <mxCell id="35yHNwrbFxf3cl5usEXa-4" value="stand_idle" style="rounded=1;whiteSpace=wrap;html=1;" parent="1" vertex="1">
          <mxGeometry x="460" y="40" width="80" height="40" as="geometry" />
        </mxCell>
        <mxCell id="35yHNwrbFxf3cl5usEXa-5" value="crouch_idle" style="rounded=1;whiteSpace=wrap;html=1;" parent="1" vertex="1">
          <mxGeometry x="460" y="240" width="80" height="40" as="geometry" />
        </mxCell>
        <mxCell id="35yHNwrbFxf3cl5usEXa-14" style="edgeStyle=orthogonalEdgeStyle;orthogonalLoop=1;jettySize=auto;html=1;exitX=1;exitY=0.5;exitDx=0;exitDy=0;entryX=0;entryY=0.5;entryDx=0;entryDy=0;rounded=1;" parent="1" source="35yHNwrbFxf3cl5usEXa-6" target="35yHNwrbFxf3cl5usEXa-13" edge="1">
          <mxGeometry relative="1" as="geometry" />
        </mxCell>
        <mxCell id="35yHNwrbFxf3cl5usEXa-15" style="edgeStyle=orthogonalEdgeStyle;rounded=1;orthogonalLoop=1;jettySize=auto;html=1;exitX=1;exitY=0.5;exitDx=0;exitDy=0;entryX=0;entryY=0.5;entryDx=0;entryDy=0;" parent="1" source="35yHNwrbFxf3cl5usEXa-6" target="35yHNwrbFxf3cl5usEXa-7" edge="1">
          <mxGeometry relative="1" as="geometry" />
        </mxCell>
        <mxCell id="35yHNwrbFxf3cl5usEXa-16" style="edgeStyle=orthogonalEdgeStyle;rounded=1;orthogonalLoop=1;jettySize=auto;html=1;exitX=1;exitY=0.5;exitDx=0;exitDy=0;entryX=0;entryY=0.5;entryDx=0;entryDy=0;" parent="1" source="35yHNwrbFxf3cl5usEXa-6" target="35yHNwrbFxf3cl5usEXa-8" edge="1">
          <mxGeometry relative="1" as="geometry" />
        </mxCell>
        <mxCell id="35yHNwrbFxf3cl5usEXa-6" value="crouch_peek" style="rounded=1;whiteSpace=wrap;html=1;" parent="1" vertex="1">
          <mxGeometry x="460" y="360" width="80" height="40" as="geometry" />
        </mxCell>
        <mxCell id="35yHNwrbFxf3cl5usEXa-7" value="peek_left" style="rounded=1;whiteSpace=wrap;html=1;" parent="1" vertex="1">
          <mxGeometry x="600" y="360" width="80" height="40" as="geometry" />
        </mxCell>
        <mxCell id="35yHNwrbFxf3cl5usEXa-8" value="peek_right" style="rounded=1;whiteSpace=wrap;html=1;" parent="1" vertex="1">
          <mxGeometry x="600" y="400" width="80" height="40" as="geometry" />
        </mxCell>
        <mxCell id="35yHNwrbFxf3cl5usEXa-13" value="peek_ready" style="rounded=1;whiteSpace=wrap;html=1;" parent="1" vertex="1">
          <mxGeometry x="600" y="320" width="80" height="40" as="geometry" />
        </mxCell>
        <mxCell id="35yHNwrbFxf3cl5usEXa-18" style="edgeStyle=orthogonalEdgeStyle;rounded=1;orthogonalLoop=1;jettySize=auto;html=1;exitX=1;exitY=0.5;exitDx=0;exitDy=0;entryX=0;entryY=0.5;entryDx=0;entryDy=0;" parent="1" source="35yHNwrbFxf3cl5usEXa-17" target="35yHNwrbFxf3cl5usEXa-5" edge="1">
          <mxGeometry relative="1" as="geometry" />
        </mxCell>
        <mxCell id="35yHNwrbFxf3cl5usEXa-19" style="edgeStyle=orthogonalEdgeStyle;rounded=1;orthogonalLoop=1;jettySize=auto;html=1;exitX=1;exitY=0.5;exitDx=0;exitDy=0;entryX=0;entryY=0.5;entryDx=0;entryDy=0;" parent="1" source="35yHNwrbFxf3cl5usEXa-17" target="35yHNwrbFxf3cl5usEXa-3" edge="1">
          <mxGeometry relative="1" as="geometry" />
        </mxCell>
        <mxCell id="35yHNwrbFxf3cl5usEXa-20" style="edgeStyle=orthogonalEdgeStyle;shape=connector;rounded=1;orthogonalLoop=1;jettySize=auto;html=1;exitX=1;exitY=0.5;exitDx=0;exitDy=0;entryX=0;entryY=0.5;entryDx=0;entryDy=0;labelBackgroundColor=default;strokeColor=default;fontFamily=Helvetica;fontSize=11;fontColor=default;endArrow=classic;" parent="1" source="35yHNwrbFxf3cl5usEXa-17" target="35yHNwrbFxf3cl5usEXa-6" edge="1">
          <mxGeometry relative="1" as="geometry" />
        </mxCell>
        <mxCell id="35yHNwrbFxf3cl5usEXa-30" style="edgeStyle=orthogonalEdgeStyle;shape=connector;rounded=1;orthogonalLoop=1;jettySize=auto;html=1;exitX=1;exitY=0.5;exitDx=0;exitDy=0;entryX=0;entryY=0.5;entryDx=0;entryDy=0;labelBackgroundColor=default;strokeColor=default;fontFamily=Helvetica;fontSize=11;fontColor=default;endArrow=classic;" parent="1" source="35yHNwrbFxf3cl5usEXa-17" target="35yHNwrbFxf3cl5usEXa-29" edge="1">
          <mxGeometry relative="1" as="geometry" />
        </mxCell>
        <mxCell id="pISpFbqnszxX3VCkS1ii-10" style="edgeStyle=orthogonalEdgeStyle;shape=connector;rounded=1;orthogonalLoop=1;jettySize=auto;html=1;exitX=1;exitY=0.5;exitDx=0;exitDy=0;entryX=0;entryY=0.5;entryDx=0;entryDy=0;labelBackgroundColor=default;strokeColor=default;fontFamily=Helvetica;fontSize=11;fontColor=default;endArrow=classic;" edge="1" parent="1" source="35yHNwrbFxf3cl5usEXa-17" target="pISpFbqnszxX3VCkS1ii-9">
          <mxGeometry relative="1" as="geometry" />
        </mxCell>
        <mxCell id="35yHNwrbFxf3cl5usEXa-17" value="crouch" style="rounded=1;whiteSpace=wrap;html=1;" parent="1" vertex="1">
          <mxGeometry x="320" y="280" width="80" height="40" as="geometry" />
        </mxCell>
        <mxCell id="35yHNwrbFxf3cl5usEXa-22" style="edgeStyle=orthogonalEdgeStyle;shape=connector;rounded=1;orthogonalLoop=1;jettySize=auto;html=1;exitX=1;exitY=0.5;exitDx=0;exitDy=0;entryX=0;entryY=0.5;entryDx=0;entryDy=0;labelBackgroundColor=default;strokeColor=default;fontFamily=Helvetica;fontSize=11;fontColor=default;endArrow=classic;" parent="1" source="35yHNwrbFxf3cl5usEXa-21" target="35yHNwrbFxf3cl5usEXa-1" edge="1">
          <mxGeometry relative="1" as="geometry" />
        </mxCell>
        <mxCell id="35yHNwrbFxf3cl5usEXa-23" style="edgeStyle=orthogonalEdgeStyle;shape=connector;rounded=1;orthogonalLoop=1;jettySize=auto;html=1;exitX=1;exitY=0.5;exitDx=0;exitDy=0;entryX=0;entryY=0.5;entryDx=0;entryDy=0;labelBackgroundColor=default;strokeColor=default;fontFamily=Helvetica;fontSize=11;fontColor=default;endArrow=classic;" parent="1" source="35yHNwrbFxf3cl5usEXa-21" target="35yHNwrbFxf3cl5usEXa-4" edge="1">
          <mxGeometry relative="1" as="geometry" />
        </mxCell>
        <mxCell id="35yHNwrbFxf3cl5usEXa-24" style="edgeStyle=orthogonalEdgeStyle;shape=connector;rounded=1;orthogonalLoop=1;jettySize=auto;html=1;exitX=1;exitY=0.5;exitDx=0;exitDy=0;entryX=0;entryY=0.5;entryDx=0;entryDy=0;labelBackgroundColor=default;strokeColor=default;fontFamily=Helvetica;fontSize=11;fontColor=default;endArrow=classic;" parent="1" source="35yHNwrbFxf3cl5usEXa-21" target="35yHNwrbFxf3cl5usEXa-2" edge="1">
          <mxGeometry relative="1" as="geometry" />
        </mxCell>
        <mxCell id="35yHNwrbFxf3cl5usEXa-21" value="stand" style="rounded=1;whiteSpace=wrap;html=1;" parent="1" vertex="1">
          <mxGeometry x="320" y="100" width="80" height="40" as="geometry" />
        </mxCell>
        <mxCell id="35yHNwrbFxf3cl5usEXa-29" value="crouch_slide" style="rounded=1;whiteSpace=wrap;html=1;" parent="1" vertex="1">
          <mxGeometry x="460" y="320" width="80" height="40" as="geometry" />
        </mxCell>
        <mxCell id="35yHNwrbFxf3cl5usEXa-32" value="airborne_ascend" style="rounded=1;whiteSpace=wrap;html=1;" parent="1" vertex="1">
          <mxGeometry x="320" y="480" width="120" height="40" as="geometry" />
        </mxCell>
        <mxCell id="35yHNwrbFxf3cl5usEXa-33" value="airborne_descend" style="rounded=1;whiteSpace=wrap;html=1;" parent="1" vertex="1">
          <mxGeometry x="320" y="560" width="120" height="40" as="geometry" />
        </mxCell>
        <mxCell id="pISpFbqnszxX3VCkS1ii-3" style="edgeStyle=orthogonalEdgeStyle;rounded=1;orthogonalLoop=1;jettySize=auto;html=1;exitX=1;exitY=0.5;exitDx=0;exitDy=0;entryX=0;entryY=0.5;entryDx=0;entryDy=0;" edge="1" parent="1" source="35yHNwrbFxf3cl5usEXa-36" target="35yHNwrbFxf3cl5usEXa-21">
          <mxGeometry relative="1" as="geometry" />
        </mxCell>
        <mxCell id="pISpFbqnszxX3VCkS1ii-4" style="edgeStyle=orthogonalEdgeStyle;shape=connector;rounded=1;orthogonalLoop=1;jettySize=auto;html=1;exitX=1;exitY=0.5;exitDx=0;exitDy=0;entryX=0;entryY=0.5;entryDx=0;entryDy=0;labelBackgroundColor=default;strokeColor=default;fontFamily=Helvetica;fontSize=11;fontColor=default;endArrow=classic;" edge="1" parent="1" source="35yHNwrbFxf3cl5usEXa-36" target="35yHNwrbFxf3cl5usEXa-17">
          <mxGeometry relative="1" as="geometry" />
        </mxCell>
        <mxCell id="pISpFbqnszxX3VCkS1ii-5" style="edgeStyle=orthogonalEdgeStyle;shape=connector;rounded=1;orthogonalLoop=1;jettySize=auto;html=1;exitX=1;exitY=0.5;exitDx=0;exitDy=0;entryX=0;entryY=0.5;entryDx=0;entryDy=0;labelBackgroundColor=default;strokeColor=default;fontFamily=Helvetica;fontSize=11;fontColor=default;endArrow=classic;" edge="1" parent="1" source="35yHNwrbFxf3cl5usEXa-36" target="35yHNwrbFxf3cl5usEXa-32">
          <mxGeometry relative="1" as="geometry" />
        </mxCell>
        <mxCell id="pISpFbqnszxX3VCkS1ii-6" style="edgeStyle=orthogonalEdgeStyle;shape=connector;rounded=1;orthogonalLoop=1;jettySize=auto;html=1;exitX=1;exitY=0.5;exitDx=0;exitDy=0;entryX=0;entryY=0.5;entryDx=0;entryDy=0;labelBackgroundColor=default;strokeColor=default;fontFamily=Helvetica;fontSize=11;fontColor=default;endArrow=classic;" edge="1" parent="1" source="35yHNwrbFxf3cl5usEXa-36" target="35yHNwrbFxf3cl5usEXa-33">
          <mxGeometry relative="1" as="geometry" />
        </mxCell>
        <mxCell id="35yHNwrbFxf3cl5usEXa-36" value="steady" style="rounded=1;whiteSpace=wrap;html=1;" parent="1" vertex="1">
          <mxGeometry x="80" y="560" width="80" height="40" as="geometry" />
        </mxCell>
        <mxCell id="pISpFbqnszxX3VCkS1ii-1" value="stagger" style="rounded=1;whiteSpace=wrap;html=1;" vertex="1" parent="1">
          <mxGeometry x="80" y="640" width="80" height="40" as="geometry" />
        </mxCell>
        <mxCell id="pISpFbqnszxX3VCkS1ii-2" value="stunned" style="rounded=1;whiteSpace=wrap;html=1;" vertex="1" parent="1">
          <mxGeometry x="80" y="720" width="80" height="40" as="geometry" />
        </mxCell>
        <mxCell id="pISpFbqnszxX3VCkS1ii-7" value="stand_jump" style="rounded=1;whiteSpace=wrap;html=1;" vertex="1" parent="1">
          <mxGeometry x="320" y="180" width="80" height="40" as="geometry" />
        </mxCell>
        <mxCell id="pISpFbqnszxX3VCkS1ii-9" value="crouch_jump" style="rounded=1;whiteSpace=wrap;html=1;" vertex="1" parent="1">
          <mxGeometry x="460" y="400" width="80" height="40" as="geometry" />
        </mxCell>
        <mxCell id="pISpFbqnszxX3VCkS1ii-13" value="the &quot;jump up&quot; moment, instant" style="text;html=1;strokeColor=none;fillColor=none;align=center;verticalAlign=middle;whiteSpace=wrap;rounded=0;fontSize=11;fontFamily=Helvetica;fontColor=default;" vertex="1" parent="1">
          <mxGeometry x="410" y="180" width="160" height="40" as="geometry" />
        </mxCell>
      </root>
    </mxGraphModel>
  </diagram>
</mxfile>
